<?xml version="1.0" encoding="UTF-8"?><svg xmlns="http://www.w3.org/2000/svg" viewBox="0 0 59.17 51.68"><defs><style>.d{fill:#fff;}</style></defs><g id="a"/><g id="b"><g id="c"><path class="d" d="M0,34.24C0,18.84,7.21,7.7,20.59,0l4.51,7.45c-9.67,6.38-14.62,13.12-14.62,24.21l2.27,12.77-8.01-9.82c2.36-2.32,4.41-3.34,7.43-3.34,5.36,0,10.25,3.49,10.25,9.72,0,6.66-4.26,10.68-10.25,10.68-7.65,0-12.16-6.27-12.16-17.44Zm34.07,0c0-15.39,7.21-26.54,20.59-34.24l4.51,7.45c-9.67,6.38-14.62,13.12-14.62,24.21l2.27,12.77-8.01-9.82c2.36-2.32,4.41-3.34,7.43-3.34,5.36,0,10.25,3.49,10.25,9.72,0,6.66-4.26,10.68-10.25,10.68-7.65,0-12.16-6.27-12.16-17.44Z"/></g></g></svg>