<?xml version="1.0" encoding="utf-8"?>
<!-- Generator: Adobe Illustrator 26.0.3, SVG Export Plug-In . SVG Version: 6.00 Build 0)  -->
<svg version="1.1" id="Layer_1" xmlns="http://www.w3.org/2000/svg" xmlns:xlink="http://www.w3.org/1999/xlink" x="0px" y="0px"
	 viewBox="0 0 161.9 123.5" style="enable-background:new 0 0 161.9 123.5;" xml:space="preserve">
<style type="text/css">
	.st0{clip-path:url(#SVGID_00000062172286338710581390000005580008457731458465_);}
	.st1{clip-path:url(#SVGID_00000087381661601458055580000002894287341174014898_);}
	.st2{filter:url(#Adobe_OpacityMaskFilter);}
	.st3{clip-path:url(#SVGID_00000163760984599689376970000004562329208475794309_);}
	.st4{clip-path:url(#SVGID_00000041281933780256976020000006664010390510559618_);}
	.st5{enable-background:new    ;}
	
		.st6{clip-path:url(#SVGID_00000169520186524820694350000013873254861401738935_);fill-rule:evenodd;clip-rule:evenodd;fill:#FFFFFF;}
	
		.st7{clip-path:url(#SVGID_00000163760984599689376970000004562329208475794309_);mask:url(#SVGID_00000089572413840921642670000001963122044559973017_);}
	
		.st8{clip-path:url(#SVGID_00000023964552162999883190000013650708163277247646_);fill-rule:evenodd;clip-rule:evenodd;fill:#2AA3AC;}
</style>
<g>
	<g id="Drawn_Square_00000003067059283953721310000002076400382894543529_">
		<g>
			<defs>
				<rect id="SVGID_1_" x="7.8" y="5.2" width="146.3" height="112.3"/>
			</defs>
			<clipPath id="SVGID_00000069360086583641022190000016421653466759848614_">
				<use xlink:href="#SVGID_1_"  style="overflow:visible;"/>
			</clipPath>
			<g style="clip-path:url(#SVGID_00000069360086583641022190000016421653466759848614_);">
				<defs>
					<rect id="SVGID_00000124134053224165006780000006731662223185651612_" x="7.8" y="5.2" width="146.3" height="112.3"/>
				</defs>
				<clipPath id="SVGID_00000056395881710204667490000009498762978570735777_">
					<use xlink:href="#SVGID_00000124134053224165006780000006731662223185651612_"  style="overflow:visible;"/>
				</clipPath>
				<g style="clip-path:url(#SVGID_00000056395881710204667490000009498762978570735777_);">
					<defs>
						<rect id="SVGID_00000033348427807923792860000016232129876453509813_" x="7.8" y="5.2" width="146.3" height="112.3"/>
					</defs>
					<clipPath id="SVGID_00000183214169900292733420000006630347779885156752_">
						<use xlink:href="#SVGID_00000033348427807923792860000016232129876453509813_"  style="overflow:visible;"/>
					</clipPath>
					<defs>
						<filter id="Adobe_OpacityMaskFilter" filterUnits="userSpaceOnUse" x="7.8" y="5.2" width="146.3" height="112.3">
							<feColorMatrix  type="matrix" values="1 0 0 0 0  0 1 0 0 0  0 0 1 0 0  0 0 0 1 0"/>
						</filter>
					</defs>
					
						<mask maskUnits="userSpaceOnUse" x="7.8" y="5.2" width="146.3" height="112.3" id="SVGID_00000130633169496628324100000004973573707250657185_">
						<g class="st2">
							<g>
								<defs>
									<rect id="SVGID_00000022562867639615522080000005917293515500866475_" x="7.8" y="5.2" width="146.3" height="112.3"/>
								</defs>
								
									<clipPath id="SVGID_00000162314600427397665500000003104979289366098320_" style="clip-path:url(#SVGID_00000183214169900292733420000006630347779885156752_);">
									<use xlink:href="#SVGID_00000022562867639615522080000005917293515500866475_"  style="overflow:visible;"/>
								</clipPath>
								
									<rect x="7.8" y="5" style="clip-path:url(#SVGID_00000162314600427397665500000003104979289366098320_);" width="147.1" height="112.9"/>
								<g class="st5">
									<g>
										<defs>
											<rect id="SVGID_00000092422877262455544960000006359710954999771307_" x="7.8" y="5" width="147.1" height="112.9"/>
										</defs>
										
											<clipPath id="SVGID_00000132789792259616972170000008377481660759196351_" style="clip-path:url(#SVGID_00000162314600427397665500000003104979289366098320_);">
											<use xlink:href="#SVGID_00000092422877262455544960000006359710954999771307_"  style="overflow:visible;"/>
										</clipPath>
										
											<rect x="5.9" y="1.3" style="clip-path:url(#SVGID_00000132789792259616972170000008377481660759196351_);fill-rule:evenodd;clip-rule:evenodd;fill:#FFFFFF;" width="154.1" height="123.9"/>
									</g>
								</g>
							</g>
						</g>
					</mask>
					
						<g style="clip-path:url(#SVGID_00000183214169900292733420000006630347779885156752_);mask:url(#SVGID_00000130633169496628324100000004973573707250657185_);">
						<g>
							<defs>
								<rect id="SVGID_00000161624505258623989000000009489879901175848634_" x="7.8" y="5.2" width="146.3" height="112.3"/>
							</defs>
							<clipPath id="SVGID_00000100358121073708774010000009091016710889806473_">
								<use xlink:href="#SVGID_00000161624505258623989000000009489879901175848634_"  style="overflow:visible;"/>
							</clipPath>
							
								<path style="clip-path:url(#SVGID_00000100358121073708774010000009091016710889806473_);fill-rule:evenodd;clip-rule:evenodd;fill:#2AA3AC;" d="
								M106.1,5.5C95.3,5.8,84.4,5,73.5,5.5c-8.1,0.1-16.1-0.2-24.1-0.2c-4.1,0.1-19.8,0.5-21.6,0.4c-4.9,0-13.5-0.3-17.3,0.2
								c-0.8,0.4-1,1.7-1,2.4C8.1,19.4,8.6,30.7,7.8,41.8c1,17.9,1.6,35.7,0.8,53.6c0.5,5.6,0.6,11.8,1.2,17.3
								c0,4.3,0.6,4.3,1.2,4.6c4.4,0.7,15.9,0.1,19.5,0.2c22.8-0.2,45.7,0.3,68.5-0.3c12.9,0.1,25.6,0.4,38.7,0.3
								c1.7,0,12.8,0.3,14.7-0.4c2.6-19.8,1.8-52.5,1.3-71.1c0-12.2-0.4-25.5-0.9-37.6c0.1-0.5,0.1-2.1-0.4-2.8
								c-0.3-0.4-1.7-0.3-2.5-0.3C143.5,5.2,108.9,5.3,106.1,5.5"/>
						</g>
					</g>
				</g>
			</g>
		</g>
	</g>
</g>
</svg>
